<?xml version="1.0"?>
<svg xmlns="http://www.w3.org/2000/svg" xmlns:xlink="http://www.w3.org/1999/xlink" version="1.1" id="Capa_1" x="0px" y="0px" viewBox="0 0 383.564 383.564" style="enable-background:new 0 0 383.564 383.564;" xml:space="preserve" width="512px" height="512px" class=""><g><g>
	<path d="M381.805,194.766l-6.434-7.655c-1.279-1.523-3.111-2.475-5.094-2.647c-1.971-0.167-3.949,0.451-5.473,1.73l-20.699,17.395   c2.309-33.201-5.051-66.497-21.529-95.949c-30.408-54.347-88.109-88.108-150.588-88.108c-29.232,0-58.221,7.573-83.828,21.901   C48.073,63.864,19.1,100.628,6.581,144.951c-12.517,44.323-7.061,90.811,15.371,130.9c30.434,54.392,87.994,88.181,150.219,88.181   c6.34,0,12.758-0.354,19.076-1.052c4.117-0.455,7.086-4.161,6.631-8.278l-1.098-9.939c-0.455-4.117-4.145-7.086-8.277-6.631   c-5.408,0.597-10.898,0.899-16.318,0.899c-53.191,0-102.396-28.886-128.416-75.386c-39.643-70.853-14.252-160.749,56.6-200.393   c21.889-12.247,46.66-18.72,71.639-18.72c53.424,0,102.76,28.86,128.754,75.317c14.184,25.351,20.463,54.033,18.361,82.607   l-18.33-21.812c-2.666-3.171-7.396-3.582-10.566-0.917l-7.656,6.434c-1.523,1.28-2.475,3.112-2.647,5.094   c-0.172,1.981,0.449,3.95,1.73,5.473l40.49,48.179c1.483,1.766,3.605,2.675,5.744,2.675c1.703,0,3.416-0.577,4.822-1.758   l48.18-40.49c1.521-1.28,2.475-3.112,2.646-5.094C383.708,198.258,383.085,196.289,381.805,194.766z" data-original="#000000" class="active-path" data-old_color="#000000" fill="#0051AD"/>
	<path d="M262.178,333.801h-23.669l14.085-17.539c18.235-21.483,17.47-36.159,13.613-44.691   c-4.048-8.953-13.448-14.631-24.537-14.819c-12.751-0.206-24.55,6.809-29.956,17.771c-0.526,1.067-0.607,2.299-0.226,3.426   c0.382,1.126,1.197,2.055,2.265,2.581l8.045,3.969c2.222,1.096,4.911,0.182,6.007-2.039c2.83-5.736,8.924-7.772,13.285-7.772   l0.28,0.003c4.139,0.07,7.313,1.666,8.487,4.269c1.831,4.05-0.102,12.947-11.014,25.774c-0.026,0.032-0.055,0.065-0.081,0.097   l-31.817,39.615c-1.081,1.345-1.293,3.192-0.549,4.748c0.747,1.556,2.32,2.546,4.047,2.546h51.734c2.477,0,4.484-2.008,4.484-4.485   v-8.971C266.663,335.809,264.655,333.801,262.178,333.801z" data-original="#000000" class="active-path" data-old_color="#000000" fill="#0051AD"/>
	<path d="M337.971,315.197h-4.203v-51.321c0-2.477-2.007-4.485-4.485-4.485h-9.024c-1.459,0-2.826,0.708-3.667,1.898l-45.72,64.777   c-0.966,1.369-1.088,3.163-0.317,4.65c0.77,1.488,2.306,2.422,3.982,2.422h41.29v13.315c0,2.477,2.008,4.486,4.484,4.486h8.972   c2.478,0,4.485-2.009,4.485-4.486v-13.315h4.203c2.478,0,4.486-2.008,4.486-4.485v-8.971   C342.458,317.205,340.45,315.197,337.971,315.197z M315.827,315.197h-15.321l15.321-21.708V315.197z" data-original="#000000" class="active-path" data-old_color="#000000" fill="#0051AD"/>
	<path d="M261.893,109.189l-7.07-7.071c-0.939-0.938-2.211-1.465-3.537-1.465s-2.598,0.527-3.535,1.464l-75.486,75.485l-46.93-46.93   c-0.938-0.938-2.209-1.464-3.535-1.464s-2.598,0.527-3.535,1.465l-7.07,7.071c-1.953,1.953-1.953,5.118,0,7.071l57.535,57.537   c0.938,0.938,2.209,1.464,3.535,1.464c1.326,0,2.598-0.527,3.535-1.464l86.092-86.092   C263.844,114.307,263.844,111.142,261.893,109.189z" data-original="#000000" class="active-path" data-old_color="#000000" fill="#0051AD"/>
</g></g> </svg>
