<svg xmlns="http://www.w3.org/2000/svg" width="40" height="23" viewBox="0 0 40 23"><g><g><path fill="#4676c5" d="M38.063 4.288l-8.009 5.902 1.89 3.69 1.89 3.554 1.889 4.024L33.833 23l-3.599-2.415-6.029-4.225-1.98-.134-3.869 2.883-4.859 2.08-4.769 1.61-2.61-.269-.54-.537.36-.603L0 18.976l1.98-1.408 7.738.134 6.389-5.231 7.378-5.5c1.396-1 4.833-3.528 6.653-4.713C31.12 1.618 32.01.967 33.293.6c1.187-.34 4.023-.763 5.67-.536 2.262.469.293 3.446-.9 4.225zM3.509 7.508l2.16-1.409 15.117.872-6.209 4.494z"/></g></g></svg>